<svg xmlns="http://www.w3.org/2000/svg" viewBox="0 0 480 960" preserveAspectRatio="xMidYMid slice"><defs><linearGradient id="sky" x2="0" y2="1"><stop stop-color="#38a9ed"/><stop offset=".55" stop-color="#9be2ff"/><stop offset="1" stop-color="#e9fbff"/></linearGradient><linearGradient id="sea" x2="0" y2="1"><stop stop-color="#14bce4"/><stop offset=".18" stop-color="#087fba"/><stop offset=".5" stop-color="#064e85"/><stop offset=".76" stop-color="#032b58"/><stop offset="1" stop-color="#01142f"/></linearGradient><linearGradient id="rock" x2=".2" y2="1"><stop stop-color="#185e65"/><stop offset="1" stop-color="#062638"/></linearGradient><radialGradient id="glow"><stop stop-color="#91f5ff" stop-opacity=".75"/><stop offset="1" stop-color="#2ac7ff" stop-opacity="0"/></radialGradient><filter id="blur"><feGaussianBlur stdDeviation="10"/></filter></defs><rect width="480" height="205" fill="url(#sky)"/><path d="M0 130 Q55 92 110 130 T220 126 T330 122 T480 128 V205 H0Z" fill="#217c76" opacity=".72"/><path d="M0 153 Q70 120 145 154 T290 151 T480 146 V205 H0Z" fill="#135b64" opacity=".78"/><circle cx="398" cy="62" r="25" fill="#fff6c9" opacity=".9"/><g fill="#fff" opacity=".85"><ellipse cx="78" cy="56" rx="54" ry="15"/><ellipse cx="125" cy="72" rx="72" ry="18"/><ellipse cx="300" cy="42" rx="68" ry="17"/></g><rect y="190" width="480" height="770" fill="url(#sea)"/><path d="M0 194 Q40 182 80 194 T160 194 T240 194 T320 194 T400 194 T480 194" fill="none" stroke="#d8fbff" stroke-width="7" opacity=".88"/><path d="M0 203 Q50 190 100 203 T200 202 T300 203 T400 202 T480 202" fill="none" stroke="#47d8f1" stroke-width="4" opacity=".7"/><g opacity=".16" fill="#bff7ff"><path d="M72 196 L150 700 L212 700 L116 196Z"/><path d="M228 196 L260 640 L330 640 L276 196Z"/><path d="M355 196 L335 650 L405 650 L402 196Z"/></g><g opacity=".13" fill="url(#glow)" filter="url(#blur)"><circle cx="130" cy="360" r="95"/><circle cx="340" cy="520" r="120"/></g><g fill="#073b58" opacity=".75"><path d="M15 560 Q35 480 70 520 L92 760 H0Z"/><path d="M395 420 Q430 350 470 405 L480 760 H382Z"/><path d="M155 610 Q190 520 225 575 L240 800 H135Z"/></g><g transform="translate(245 720) rotate(-8)" opacity=".62"><path d="M-90 25 L80 12 L58 58 L-65 60Z" fill="#071b29"/><path d="M-40 20 V-52 M20 18 V-82" stroke="#0a2634" stroke-width="6"/><path d="M20 -80 L67 -45 L20 -42Z" fill="#0a2634"/></g><path d="M0 855 Q70 810 135 850 T260 842 T370 820 T480 850 V960 H0Z" fill="#031827"/><g fill="url(#rock)"><path d="M0 650 Q40 590 95 620 Q125 680 112 820 L0 850Z"/><path d="M480 610 Q425 565 390 625 Q360 700 380 845 L480 860Z"/><path d="M25 835 Q65 780 112 820 Q135 855 145 960 H0Z"/><path d="M455 820 Q410 775 365 830 L345 960 H480Z"/></g><g stroke-linecap="round" fill="none"><g stroke="#ff6f91" stroke-width="7"><path d="M38 842 V790 M38 810 L20 785 M38 820 L58 792"/><path d="M410 870 V815 M410 838 L390 812 M410 850 L435 820"/></g><g stroke="#8b5cff" stroke-width="6"><path d="M82 870 V815 M82 838 L65 815 M82 848 L102 820"/><path d="M445 790 V735 M445 760 L426 742 M445 770 L464 745"/></g><g stroke="#2ed4a8" stroke-width="6"><path d="M22 930 Q15 880 30 840 M48 930 Q58 875 48 835"/><path d="M350 950 Q338 900 350 850 M372 950 Q385 900 374 850"/></g></g><g fill="none" stroke="#bdf6ff" opacity=".48"><circle cx="75" cy="420" r="4"/><circle cx="68" cy="390" r="2"/><circle cx="355" cy="340" r="3"/><circle cx="370" cy="300" r="5"/><circle cx="295" cy="610" r="3"/><circle cx="310" cy="580" r="2"/><circle cx="165" cy="760" r="5"/></g></svg>